grf
version=1
nRows=19
nColumns=37
inDegrees=no
endheader
time	ground_force_1_vx	ground_force_1_vy	ground_force_1_vz	ground_force_1_px	ground_force_1_py	ground_force_1_pz	ground_moment_1_mx	ground_moment_1_my	ground_moment_1_mz	ground_force_2_vx	ground_force_2_vy	ground_force_2_vz	ground_force_2_px	ground_force_2_py	ground_force_2_pz	ground_moment_2_mx	ground_moment_2_my	ground_moment_2_mz	ground_force_3_vx	ground_force_3_vy	ground_force_3_vz	ground_force_3_px	ground_force_3_py	ground_force_3_pz	ground_moment_3_mx	ground_moment_3_my	ground_moment_3_mz	ground_force_4_vx	ground_force_4_vy	ground_force_4_vz	ground_force_4_px	ground_force_4_py	ground_force_4_pz	ground_moment_4_mx	ground_moment_4_my	ground_moment_4_mz
      4.38000000	      0.00000000	     -0.00000000	      0.00000000	      0.00000000	      0.00000000	      0.00000000	      0.00000000	      0.00000000	      0.00000000	     16.90231895	     90.34380341	   -597.41088867	   -360.51626914	  -1104.78215975	      0.00000000	      0.00000000	      0.00000000	   8397.81850821	     -4.69839419	   -118.71743733	   -655.90069580	   -324.58458405	   -550.15009076	      0.00000000	      0.00000000	     -0.00000000	  -8242.62011005	    -36.04025130	     15.83445387	     74.76786041	    607.54575091	   -564.16260057	      0.00000000	      0.00000000	      0.00000000	    210.70826563
      4.39000000	      0.00000000	     -0.00000000	      0.00000000	      0.00000000	      0.00000000	      0.00000000	      0.00000000	      0.00000000	      0.00000000	      8.70773888	     86.27822876	   -572.81176758	   -355.39131469	  -1107.65097090	      0.00000000	      0.00000000	      0.00000000	   9062.48520013	    -12.55803399	    -98.66978345	   -641.68011475	   -321.71053954	   -551.29305783	      0.00000000	      0.00000000	     -0.00000000	  -9467.66772835	    -35.68556074	     15.92883708	     76.11180115	    602.25450062	   -559.76359233	      0.00000000	      0.00000000	     -0.00000000	   -168.45427937
      4.40000000	      0.00000000	     -0.00000000	      0.00000000	      0.00000000	      0.00000000	      0.00000000	      0.00000000	      0.00000000	      0.00000000	     -1.34949982	     93.90098572	   -569.37091064	   -351.91960314	  -1110.08364291	      0.00000000	      0.00000000	      0.00000000	   9071.56814427	    -12.92486381	    -87.18492776	   -639.66143799	   -320.87059098	   -553.53874266	      0.00000000	      0.00000000	     -0.00000000	 -10797.13463135	    -35.35175947	     15.99220299	     74.48108673	    608.10160777	   -565.76527198	      0.00000000	      0.00000000	      0.00000000	      5.53822863
      4.41000000	      0.00000000	     -0.00000000	      0.00000000	      0.00000000	      0.00000000	      0.00000000	      0.00000000	      0.00000000	      0.00000000	     -8.44369888	    110.44351959	   -577.59790039	   -349.68872211	  -1111.58658211	      0.00000000	      0.00000000	      0.00000000	   8793.95150921	    -12.67678985	    -93.69165691	   -650.94079590	   -320.87221643	   -553.41734540	      0.00000000	     -0.00000000	     -0.00000000	 -11573.71664914	    -35.07271058	     15.58559724	     74.46360779	    610.39610452	   -563.22722472	      0.00000000	      0.00000000	      0.00000000	      9.68875007
      4.42000000	      0.00000000	     -0.00000000	      0.00000000	      0.00000000	      0.00000000	      0.00000000	      0.00000000	      0.00000000	      0.00000000	     -6.81647778	    124.11209869	   -592.44940186	   -349.68765896	  -1112.82955530	      0.00000000	      0.00000000	      0.00000000	   8844.61585478	    -19.21907970	   -106.01346420	   -675.50921631	   -321.62285783	   -554.21588053	      0.00000000	      0.00000000	     -0.00000000	 -11422.72450043	    -35.33609633	     15.85594105	     76.89949036	    600.74370576	   -564.07350465	      0.00000000	      0.00000000	      0.00000000	    256.18692174
      4.43000000	      0.00000000	     -0.00000000	      0.00000000	      0.00000000	      0.00000000	      0.00000000	      0.00000000	      0.00000000	      0.00000000	     -1.53775191	    128.19561768	   -612.26776123	   -351.91974995	  -1111.75140257	      0.00000000	      0.00000000	      0.00000000	   9929.02507968	    -12.80543340	   -110.53202708	   -709.82604980	   -325.12213850	   -555.39014500	      0.00000000	      0.00000000	     -0.00000000	 -11925.29007464	    -35.04738097	     15.79253503	     76.38314819	    602.02525221	   -562.72736117	      0.00000000	      0.00000000	      0.00000000	     83.00938195
      4.44000000	      0.00000000	     -0.00000000	      0.00000000	      0.00000000	      0.00000000	      0.00000000	      0.00000000	      0.00000000	      0.00000000	      2.57125974	    123.17409515	   -624.81488037	   -354.27734523	  -1109.82281539	      0.00000000	      0.00000000	      0.00000000	  11132.49358440	     -1.61359199	   -110.01301561	   -734.88031006	   -328.62511344	   -556.56460850	      0.00000000	      0.00000000	     -0.00000000	 -12165.69399456	    -35.29443601	     15.95667862	     74.94033813	    610.83671792	   -565.61664722	      0.00000000	      0.00000000	      0.00000000	    122.34026675
      4.45000000	      0.00000000	     -0.00000000	      0.00000000	      0.00000000	      0.00000000	      0.00000000	      0.00000000	      0.00000000	      0.00000000	      7.76131439	    116.46167755	   -633.91949463	   -356.56466731	  -1107.81390530	      0.00000000	      0.00000000	      0.00000000	  12472.50680279	      8.87504666	   -109.87614519	   -757.47290039	   -332.38740729	   -558.18514844	      0.00000000	     -0.00000000	     -0.00000000	 -12664.99389348	    -35.39357620	     15.68687748	     74.81552887	    606.52151264	   -565.22588554	      0.00000000	      0.00000000	      0.00000000	    210.52648786
      4.46000000	      0.00000000	     -0.00000000	      0.00000000	      0.00000000	      0.00000000	      0.00000000	      0.00000000	      0.00000000	      0.00000000	      9.82912731	    112.32960510	   -632.35559082	   -358.46383606	  -1105.58885534	      0.00000000	      0.00000000	      0.00000000	  13475.37649423	     15.52437734	   -114.61946242	   -776.32611084	   -334.45272542	   -558.54880433	      0.00000000	      0.00000000	      0.00000000	 -12300.09765242	    -35.23749783	     16.11376117	     76.25549316	    601.32969233	   -562.57152674	      0.00000000	      0.00000000	      0.00000000	     30.87779589
      4.47000000	      0.00000000	     -0.00000000	      0.00000000	      0.00000000	      0.00000000	      0.00000000	      0.00000000	      0.00000000	      0.00000000	      5.48992634	    113.12248993	   -623.93365479	   -357.94651558	  -1105.03742538	      0.00000000	      0.00000000	      0.00000000	  13786.44280777	     12.41697849	   -123.98115648	   -773.59484863	   -334.14512859	   -557.92225336	      0.00000000	      0.00000000	      0.00000000	 -10984.30266455	    -35.54725506	     16.07214094	     74.78131866	    612.58699328	   -565.78033481	      0.00000000	      0.00000000	      0.00000000	     15.97561868
      4.48000000	      0.00000000	     -0.00000000	      0.00000000	      0.00000000	      0.00000000	      0.00000000	      0.00000000	      0.00000000	      0.00000000	     -0.79557168	    116.48612213	   -627.89025879	   -358.88049969	  -1104.02337219	      0.00000000	      0.00000000	      0.00000000	  14110.20803637	      8.86215811	   -127.57716447	   -775.87774658	   -334.31863843	   -557.64681869	      0.00000000	      0.00000000	     -0.00000000	 -10198.93495264	    -35.14007808	     16.25963328	     74.97679901	    605.05609262	   -563.67481353	      0.00000000	      0.00000000	     -0.00000000	   -160.05366238
      4.49000000	      0.00000000	     -0.00000000	      0.00000000	      0.00000000	      0.00000000	      0.00000000	      0.00000000	      0.00000000	      0.00000000	      0.03293717	    118.68102264	   -645.58209229	   -360.65052764	  -1102.58157841	      0.00000000	      0.00000000	      0.00000000	  14277.89288659	      8.97581437	   -125.11140520	   -788.64080811	   -335.43455047	   -559.02270652	      0.00000000	     -0.00000000	     -0.00000000	 -10026.93944671	    -35.19785929	     16.34999011	     76.76300812	    603.81498029	   -560.57614191	      0.00000000	      0.00000000	     -0.00000000	    -62.63677678
      4.50000000	      0.00000000	     -0.00000000	      0.00000000	      0.00000000	      0.00000000	      0.00000000	      0.00000000	      0.00000000	      0.00000000	      6.85306311	    123.76167297	   -665.51965332	   -363.26683819	  -1100.67174272	      0.00000000	      0.00000000	      0.00000000	  14078.44402791	     11.41979928	   -125.97099404	   -806.41363525	   -336.67116429	   -560.11780249	      0.00000000	      0.00000000	     -0.00000000	  -9681.59824156	    -35.55554821	     16.19453741	     76.85670471	    599.80518594	   -559.54484607	      0.00000000	      0.00000000	      0.00000000	     31.95351351
      4.51000000	      0.00000000	     -0.00000000	      0.00000000	      0.00000000	      0.00000000	      0.00000000	      0.00000000	      0.00000000	      0.00000000	     17.06275940	    131.55590820	   -689.85595703	   -366.35321430	  -1099.41353458	      0.00000000	      0.00000000	      0.00000000	  14126.81855304	     17.83885557	   -132.89982761	   -832.12329102	   -338.47805127	   -560.53704579	      0.00000000	      0.00000000	     -0.00000000	  -9458.23018889	    -35.40918590	     16.21099591	     76.82425690	    598.15174907	   -559.44585779	      0.00000000	      0.00000000	      0.00000000	    -91.24696212
      4.52000000	      0.00000000	     -0.00000000	      0.00000000	      0.00000000	      0.00000000	      0.00000000	      0.00000000	      0.00000000	      0.00000000	     26.24283028	    137.78672791	   -711.81658936	   -368.78805200	  -1098.87841305	      0.00000000	      0.00000000	      0.00000000	  14046.63356461	     22.75000687	   -139.55586442	   -858.33850098	   -339.24594000	   -561.13547432	      0.00000000	      0.00000000	     -0.00000000	  -9303.02944255	    -35.51501322	     16.36523367	     75.51921082	    606.23692754	   -562.86706759	      0.00000000	      0.00000000	     -0.00000000	    -28.37057449
      4.53000000	      0.00000000	     -0.00000000	      0.00000000	      0.00000000	      0.00000000	      0.00000000	      0.00000000	      0.00000000	      0.00000000	     33.64875793	    142.52478027	   -728.16345215	   -371.09097209	  -1096.49223879	      0.00000000	      0.00000000	      0.00000000	  14143.23487487	     23.96078566	   -144.19542141	   -877.91827393	   -339.20413228	   -561.00903931	      0.00000000	      0.00000000	     -0.00000000	  -9227.86530175	    -35.19016124	     16.26792262	     75.42722321	    604.16771325	   -562.44353657	      0.00000000	      0.00000000	      0.00000000	     44.68664884
      4.54000000	      0.00000000	     -0.00000000	      0.00000000	      0.00000000	      0.00000000	      0.00000000	      0.00000000	      0.00000000	      0.00000000	     40.15157700	    144.61889648	   -744.92169189	   -372.65534560	  -1096.39280580	      0.00000000	      0.00000000	      0.00000000	  14328.40425427	     20.35677951	   -148.05040156	   -883.50982666	   -337.95300880	   -560.93962298	      0.00000000	      0.00000000	     -0.00000000	  -9439.86593842	    -35.61109782	     16.25118567	     76.09162140	    603.22185922	   -561.62596690	      0.00000000	     -0.00000000	     -0.00000000	     93.37609208
      4.55000000	      0.00000000	     -0.00000000	      0.00000000	      0.00000000	      0.00000000	      0.00000000	      0.00000000	      0.00000000	      0.00000000	     42.10078049	    146.78125000	   -752.45617676	   -373.63678422	  -1095.99353793	      0.00000000	      0.00000000	      0.00000000	  14592.87363703	     11.82457561	   -150.58177288	   -887.78997803	   -335.68629638	   -560.13349296	      0.00000000	      0.00000000	     -0.00000000	  -9839.24931067	    -35.10095834	     16.41430017	     75.29936981	    607.24526759	   -560.63238491	      0.00000000	      0.00000000	     -0.00000000	   -315.04768532
      4.56000000	      0.00000000	     -0.00000000	      0.00000000	      0.00000000	      0.00000000	      0.00000000	      0.00000000	      0.00000000	      0.00000000	     37.69032669	    149.63963318	   -755.09875488	   -373.09764590	  -1095.66075794	      0.00000000	      0.00000000	      0.00000000	  14963.25522861	      1.93233461	   -153.34922807	   -891.62902832	   -333.29874722	   -559.53791521	      0.00000000	      0.00000000	      0.00000000	 -10443.43419250	    -35.25268416	     15.91854594	     75.03831482	    608.25493773	   -563.81819598	      0.00000000	      0.00000000	      0.00000000	     15.14016577
